<?xml version="1.0" standalone="no"?>
<!DOCTYPE svg PUBLIC "-//W3C//DTD SVG 20010904//EN"
 "http://www.w3.org/TR/2001/REC-SVG-20010904/DTD/svg10.dtd">
<svg version="1.0" xmlns="http://www.w3.org/2000/svg"
 width="2480.000000pt" height="2480.000000pt" viewBox="0 0 2480.000000 2480.000000"
 preserveAspectRatio="xMidYMid meet">

<g transform="translate(0.000000,2480.000000) scale(0.100000,-0.100000)"
fill="#000000" stroke="none">
<path d="M12075 23609 c-22 -4 -76 -15 -120 -23 -222 -42 -387 -92 -600 -180
-110 -46 -394 -126 -446 -126 -7 0 -36 -19 -64 -42 -29 -24 -74 -59 -100 -78
-26 -19 -68 -54 -94 -76 -25 -23 -71 -56 -101 -72 -58 -32 -70 -52 -49 -79 10
-12 24 -14 64 -9 27 4 104 11 170 16 130 11 242 28 345 53 36 9 103 25 150 36
109 25 249 66 325 95 67 26 273 76 410 100 294 52 857 34 1125 -35 41 -10 100
-24 130 -30 98 -19 430 -135 502 -174 14 -8 77 -36 140 -61 84 -34 135 -48
198 -55 47 -5 100 -13 118 -18 39 -12 314 -17 331 -7 6 4 11 18 11 31 0 17
-25 45 -92 104 -51 44 -130 114 -176 156 l-82 75 -58 0 c-32 0 -83 9 -115 20
-31 11 -66 20 -77 20 -30 0 -138 27 -270 67 -133 40 -235 79 -466 179 -101 43
-131 51 -354 99 -108 23 -133 24 -415 24 -165 -1 -318 -5 -340 -10z"/>
<path d="M12080 22530 c-266 -23 -440 -64 -775 -184 -71 -26 -176 -56 -233
-67 -57 -11 -115 -25 -130 -30 -72 -29 -235 -42 -542 -47 -337 -4 -423 3 -571
50 -43 14 -75 19 -94 14 -15 -4 -67 -45 -116 -92 -48 -46 -92 -84 -98 -84 -6
0 -18 -11 -27 -25 -15 -23 -15 -27 -1 -49 13 -19 40 -30 144 -55 197 -50 303
-71 358 -71 28 -1 82 -7 120 -16 43 -9 156 -17 295 -21 190 -5 239 -3 310 11
46 10 130 21 185 26 55 5 114 13 130 19 17 6 77 27 135 47 58 20 113 41 123
46 38 20 297 90 401 109 60 11 117 24 128 30 11 6 70 14 131 19 62 5 136 14
166 19 68 14 531 14 589 1 23 -6 86 -14 140 -20 97 -9 315 -63 467 -115 78
-26 181 -71 277 -121 74 -39 287 -95 428 -114 137 -19 390 -24 485 -10 44 7
119 16 168 20 109 11 304 57 512 123 212 68 254 104 173 152 -17 10 -70 58
-116 107 -47 49 -95 91 -108 94 -24 6 -172 -26 -237 -51 -20 -8 -53 -15 -72
-15 -19 0 -76 -7 -126 -16 -172 -29 -805 -5 -899 34 -14 6 -74 20 -135 32
-130 25 -231 53 -459 127 -188 61 -263 79 -381 94 -44 5 -96 14 -115 20 -42
13 -510 20 -630 9z"/>
<path d="M12466 21849 c-30 -36 -44 -67 -82 -180 -35 -106 -42 -110 -202 -119
-70 -4 -152 -13 -182 -19 -30 -6 -98 -18 -150 -27 -52 -8 -135 -29 -183 -45
-49 -16 -94 -29 -100 -29 -24 0 -243 -86 -382 -151 -82 -37 -224 -69 -313 -69
-24 0 -72 -8 -106 -17 -87 -25 -449 -25 -549 0 -38 9 -85 17 -107 17 -50 0
-237 35 -320 60 -36 11 -96 29 -135 40 -82 25 -222 76 -249 92 -27 15 -196 76
-276 99 -125 37 -126 36 -267 -107 -67 -69 -123 -131 -123 -138 0 -7 6 -21 14
-32 12 -16 25 -19 82 -16 38 1 93 -4 124 -12 30 -8 82 -17 115 -21 33 -4 71
-12 85 -17 14 -6 67 -21 118 -34 142 -35 315 -103 532 -206 131 -63 175 -76
292 -88 51 -5 111 -14 133 -19 62 -16 400 -13 491 3 44 8 114 17 157 19 42 3
99 12 125 20 62 20 182 47 207 47 11 0 99 28 195 61 96 34 227 79 290 101 73
25 146 43 200 48 47 5 101 14 120 19 53 17 191 14 217 -4 29 -20 36 -58 18
-101 -11 -26 -15 -74 -15 -173 0 -88 -5 -145 -13 -161 -15 -30 -73 -48 -182
-56 -44 -3 -99 -12 -123 -20 -23 -8 -60 -14 -81 -14 -44 0 -76 -11 -221 -75
-146 -65 -341 -131 -460 -155 -54 -11 -111 -25 -125 -30 -15 -6 -47 -10 -73
-10 -26 0 -110 -7 -187 -16 -123 -15 -158 -16 -290 -4 -82 7 -188 16 -235 20
-47 4 -98 12 -115 18 -16 6 -55 13 -85 17 -67 7 -312 77 -395 112 -33 13 -90
35 -128 49 -37 13 -76 28 -87 34 -10 5 -67 21 -127 34 -59 14 -126 30 -148 35
-22 6 -60 11 -84 11 -24 0 -71 7 -104 16 -91 23 -680 17 -716 -8 -24 -17 -125
-138 -143 -173 -6 -11 -40 -52 -75 -91 -34 -39 -63 -78 -63 -87 0 -28 29 -35
89 -21 31 7 81 13 111 14 30 0 96 7 145 15 50 8 153 15 230 15 77 0 181 -7
230 -15 50 -8 128 -15 175 -15 47 0 110 -7 140 -15 30 -8 69 -15 86 -15 43 0
334 -75 409 -105 148 -59 477 -151 593 -165 45 -6 94 -15 107 -20 38 -15 244
-25 425 -22 184 3 290 23 450 86 47 19 96 37 110 41 14 4 30 11 35 16 6 4 51
19 100 34 50 14 108 32 130 40 22 9 107 29 188 45 82 16 153 33 159 36 6 4 54
10 107 15 53 5 128 11 167 15 69 6 72 6 89 -19 38 -58 65 -339 45 -472 -6 -44
-15 -111 -20 -149 -13 -111 -4 -108 -292 -117 -178 -5 -256 -11 -292 -23 -60
-20 -256 -22 -274 -4 -7 7 -12 24 -12 38 0 35 60 181 104 254 40 67 42 74 21
82 -21 8 -99 -53 -157 -123 -26 -31 -74 -107 -108 -168 -33 -61 -70 -121 -83
-133 -15 -14 -45 -24 -93 -30 -39 -6 -100 -22 -135 -37 -284 -120 -310 -125
-594 -125 -154 0 -247 5 -299 15 -79 15 -280 76 -313 94 -24 14 -207 89 -258
106 -159 52 -312 85 -395 85 -36 1 -94 7 -130 15 -73 16 -247 18 -330 4 -30
-5 -95 -11 -145 -14 -149 -9 -475 -80 -610 -133 -27 -11 -86 -25 -130 -32 -44
-6 -100 -17 -125 -25 -25 -7 -70 -16 -100 -19 -82 -8 -159 -34 -185 -62 -12
-13 -37 -52 -55 -86 -18 -35 -57 -100 -86 -145 -30 -45 -54 -89 -54 -97 0 -19
39 -30 78 -23 94 17 487 124 582 158 30 11 85 31 121 43 36 13 79 31 97 40 53
28 220 58 370 67 79 4 147 11 153 14 13 8 338 -13 409 -26 30 -6 84 -14 120
-19 69 -8 320 -77 405 -110 28 -11 104 -40 170 -66 66 -25 143 -57 170 -69 28
-13 97 -31 155 -40 58 -9 143 -25 190 -36 58 -13 134 -21 238 -24 84 -2 157
-7 162 -10 4 -3 113 -5 241 -6 200 0 236 -2 251 -16 15 -14 18 -33 18 -123 0
-59 5 -144 11 -189 6 -45 8 -93 5 -107 -10 -37 -60 -54 -160 -54 -46 0 -120
-7 -163 -15 -43 -8 -114 -15 -158 -15 -44 0 -96 -5 -115 -10 -119 -35 -238
-52 -320 -46 -47 4 -135 10 -196 15 -61 4 -116 11 -122 15 -6 3 -65 17 -132
31 -67 14 -140 33 -163 43 -23 10 -55 22 -72 26 -16 4 -85 34 -152 67 -101 49
-136 61 -205 70 -45 5 -85 12 -89 15 -35 21 -671 22 -781 0 -40 -8 -95 -17
-123 -21 -27 -3 -79 -15 -115 -25 -36 -11 -99 -27 -140 -36 -41 -9 -87 -23
-102 -30 -40 -21 -221 -79 -308 -99 -41 -10 -104 -25 -140 -35 -36 -10 -110
-26 -165 -35 -55 -9 -127 -23 -160 -30 -33 -8 -91 -17 -129 -20 -86 -9 -93
-16 -151 -157 -24 -59 -53 -120 -64 -134 -28 -35 -26 -50 5 -71 23 -15 32 -15
77 -4 29 7 97 16 152 20 55 4 125 14 155 23 30 9 109 26 175 38 66 11 145 32
175 44 111 48 218 79 385 116 55 11 137 30 182 41 45 10 115 19 155 19 40 1
102 7 138 15 76 17 526 20 600 5 25 -6 96 -14 159 -19 63 -6 135 -15 160 -21
25 -6 114 -26 196 -45 182 -41 353 -91 460 -136 l80 -33 226 -4 c124 -2 289 2
365 8 76 7 235 14 352 17 251 6 247 7 238 -78 -8 -68 6 -85 32 -40 20 37 25
38 44 9 22 -33 28 -107 33 -358 2 -124 8 -249 14 -279 6 -29 11 -95 11 -145 0
-61 7 -116 20 -164 11 -39 20 -89 20 -109 -1 -105 46 -316 97 -438 44 -106
103 -277 128 -373 14 -51 29 -100 34 -110 5 -10 17 -79 26 -153 9 -74 21 -147
27 -164 13 -35 66 -105 78 -105 17 0 30 38 40 117 15 110 47 257 74 333 13 36
29 85 37 110 7 25 26 74 41 108 15 35 28 69 28 74 0 18 78 149 135 228 30 41
60 86 67 100 7 14 24 43 38 65 39 58 110 211 110 234 0 38 -17 29 -75 -39 -52
-61 -64 -70 -94 -70 -46 0 -85 43 -138 151 -82 168 -88 201 -87 484 0 229 2
256 22 319 12 37 22 88 22 112 0 39 11 70 49 134 9 15 63 128 135 282 20 42
36 79 36 83 0 3 13 34 29 69 17 34 33 76 37 92 4 16 16 47 27 69 44 89 152
449 204 685 23 105 29 157 33 325 5 168 3 210 -11 260 -9 33 -25 105 -34 160
-9 55 -24 127 -33 160 -33 130 -50 429 -33 580 23 198 63 356 95 377 22 15 65
8 76 -12 14 -27 44 -128 65 -220 9 -41 23 -92 31 -112 7 -20 25 -79 39 -130
15 -51 33 -106 40 -123 8 -16 24 -55 35 -85 12 -30 25 -59 30 -65 15 -18 48
-149 55 -213 3 -34 12 -84 20 -110 11 -36 15 -111 15 -322 l-1 -275 -33 -125
c-19 -69 -47 -156 -64 -195 -30 -70 -63 -178 -89 -290 -8 -33 -23 -94 -34
-137 -21 -76 -26 -108 -53 -313 -8 -60 -19 -123 -25 -138 -7 -18 -12 -136 -13
-320 -1 -251 2 -297 16 -329 9 -21 16 -54 16 -75 0 -46 32 -162 73 -262 30
-75 30 -78 29 -256 -1 -323 -64 -522 -241 -758 -28 -37 -51 -72 -51 -77 0 -5
-11 -22 -25 -38 -14 -17 -37 -55 -51 -86 -14 -31 -29 -58 -34 -61 -5 -3 -19
-27 -30 -53 -12 -26 -33 -68 -46 -94 -13 -25 -33 -77 -45 -115 -12 -37 -25
-72 -29 -78 -4 -5 -15 -37 -24 -70 -9 -33 -21 -69 -26 -80 -19 -44 -50 -184
-50 -227 0 -25 -7 -65 -15 -88 -19 -54 -22 -442 -3 -487 6 -15 14 -71 18 -123
3 -52 10 -103 14 -112 6 -14 4 -18 -10 -18 -34 0 -83 38 -105 82 -12 24 -30
54 -41 67 -10 13 -26 49 -34 80 -9 31 -27 77 -40 103 -19 37 -64 181 -64 203
0 3 -6 5 -13 5 -25 0 -54 -45 -67 -100 -6 -30 -20 -75 -30 -100 -14 -34 -20
-85 -26 -197 -10 -223 3 -254 159 -386 50 -42 128 -128 225 -247 42 -52 87
-136 117 -218 40 -112 26 -152 -48 -138 -31 6 -43 16 -71 60 -38 59 -117 132
-256 234 -52 39 -115 86 -138 104 -49 37 -182 182 -182 198 0 6 -11 27 -24 48
-28 41 -52 127 -62 218 -8 76 26 265 63 344 55 120 96 197 131 245 75 101 93
133 104 186 14 66 4 126 -21 134 -31 10 -49 -5 -66 -53 -29 -84 -69 -156 -126
-227 -76 -94 -109 -123 -146 -131 -26 -5 -33 -2 -43 17 -17 30 -7 107 21 161
22 41 22 53 23 323 l0 280 -36 90 c-20 50 -57 124 -82 165 -25 41 -53 91 -62
110 -8 19 -26 58 -39 85 -36 76 -104 290 -119 380 -19 107 -27 340 -17 500 8
125 19 175 63 295 11 30 31 93 43 140 13 47 30 103 39 125 17 44 22 145 7 145
-11 0 -27 -47 -36 -107 -4 -23 -15 -53 -24 -65 -21 -26 -109 -209 -136 -281
-10 -26 -28 -53 -39 -59 -21 -12 -292 -13 -328 -2 -22 7 -24 51 -3 100 41 99
-50 55 -122 -59 l-24 -39 -57 5 c-153 13 -216 27 -296 66 -108 52 -167 76
-251 101 -38 12 -88 28 -109 36 -22 9 -92 26 -155 39 -64 13 -132 29 -151 35
-19 5 -58 10 -87 10 -28 0 -87 7 -130 15 -116 22 -473 20 -680 -5 -90 -10
-166 -21 -171 -24 -4 -2 -65 -16 -134 -31 -69 -14 -158 -36 -197 -50 -39 -13
-92 -26 -118 -30 -27 -3 -84 -14 -128 -25 -144 -33 -230 -50 -255 -50 -14 0
-68 -9 -120 -19 -185 -38 -266 -51 -320 -51 -30 -1 -82 -7 -115 -15 -40 -10
-117 -15 -232 -15 l-173 0 -30 -27 c-24 -22 -37 -50 -61 -136 -17 -59 -37
-119 -44 -134 -19 -36 -5 -59 43 -73 55 -15 353 -12 447 5 44 8 93 15 110 15
16 0 65 9 110 19 77 19 176 39 280 59 28 6 82 17 120 27 39 9 104 22 145 30
41 7 93 20 116 28 23 8 79 23 124 32 46 9 151 39 234 66 l151 49 245 0 c184 0
285 -5 404 -20 88 -11 201 -20 250 -20 50 0 118 -7 151 -15 33 -8 81 -14 106
-15 25 0 65 -6 90 -14 24 -8 83 -21 130 -30 47 -8 105 -24 130 -35 24 -10 73
-27 109 -36 36 -9 90 -23 120 -32 30 -9 93 -19 139 -23 72 -6 87 -10 104 -31
15 -18 18 -33 13 -64 -18 -113 -19 -234 -2 -284 9 -27 16 -59 16 -71 0 -11 7
-50 16 -85 32 -125 7 -146 -150 -121 -58 9 -144 16 -193 16 -104 0 -305 39
-365 70 -71 37 -227 88 -343 114 -38 8 -110 24 -160 35 -192 43 -668 46 -825
6 -30 -8 -109 -27 -175 -44 -66 -16 -157 -42 -202 -59 -81 -29 -113 -43 -248
-107 -100 -47 -283 -101 -405 -120 -58 -9 -136 -21 -175 -27 -97 -14 -468 -3
-565 17 -41 9 -105 25 -141 36 -36 10 -72 19 -81 19 -28 0 -48 -36 -57 -106
-5 -38 -19 -104 -30 -146 -37 -133 -18 -158 132 -169 56 -5 149 -13 207 -18
200 -19 405 -11 660 28 184 28 358 79 520 151 96 43 189 78 245 91 28 6 88 22
135 34 133 36 196 47 325 55 66 5 164 13 218 20 80 9 122 8 232 -4 74 -9 156
-16 183 -16 87 0 343 -62 477 -115 81 -32 259 -54 435 -53 90 0 177 -6 230
-15 47 -9 135 -19 196 -22 95 -6 112 -4 117 9 7 17 -15 88 -38 123 -33 49 -89
255 -99 364 -3 31 -13 74 -22 95 -33 78 -8 181 54 222 20 13 22 12 31 -9 5
-13 17 -67 26 -119 23 -129 33 -158 69 -208 21 -31 49 -53 91 -73 90 -43 134
-69 200 -118 71 -53 196 -177 233 -234 83 -124 133 -213 141 -248 11 -49 4
-401 -10 -494 -14 -93 -72 -251 -127 -348 -36 -64 -137 -182 -259 -306 -58
-58 -139 -201 -285 -506 l-33 -70 0 -175 0 -175 42 -120 c42 -119 97 -236 137
-287 12 -14 32 -44 45 -66 22 -37 130 -149 274 -285 45 -42 58 -61 55 -79 -6
-41 -59 -36 -163 17 -213 108 -292 169 -398 303 -27 34 -53 60 -57 57 -5 -3
-11 -19 -15 -35 -4 -17 -15 -35 -25 -40 -29 -15 -303 11 -420 40 -237 59 -474
145 -610 221 -100 56 -210 100 -271 109 -37 5 -79 14 -94 20 -39 15 -562 15
-600 0 -17 -6 -67 -15 -111 -20 -124 -13 -467 -109 -665 -186 -48 -19 -90 -34
-94 -34 -3 0 -31 -11 -61 -25 -30 -14 -75 -30 -100 -35 -24 -6 -71 -19 -103
-30 -78 -27 -198 -48 -356 -62 -290 -26 -531 -10 -722 49 -86 26 -103 -9 -72
-150 10 -45 18 -109 19 -142 0 -33 9 -89 20 -123 11 -35 20 -80 20 -99 0 -40
24 -172 51 -283 25 -103 39 -177 39 -203 0 -12 9 -51 20 -87 11 -36 33 -121
50 -190 47 -195 87 -343 99 -370 7 -14 22 -70 35 -125 26 -111 205 -648 255
-764 17 -40 31 -80 31 -90 0 -9 13 -43 28 -76 16 -33 48 -112 72 -175 23 -63
46 -120 51 -125 4 -6 23 -48 42 -95 19 -47 44 -103 56 -125 11 -22 21 -43 21
-48 0 -23 263 -564 356 -732 33 -60 89 -162 124 -225 35 -63 87 -155 117 -203
29 -49 53 -90 53 -93 0 -3 11 -20 25 -38 14 -18 25 -36 25 -40 0 -4 28 -51 62
-104 33 -53 69 -110 80 -127 36 -59 167 -261 188 -290 12 -16 59 -82 103 -147
144 -205 409 -549 582 -756 44 -52 104 -124 132 -159 29 -36 94 -109 145 -162
51 -53 109 -118 128 -143 34 -45 542 -555 705 -708 44 -41 141 -128 215 -192
281 -244 376 -324 524 -440 61 -48 140 -110 176 -138 36 -28 103 -79 150 -113
47 -34 135 -98 195 -142 61 -45 124 -90 141 -101 36 -22 143 -95 277 -187 50
-36 115 -78 142 -94 28 -17 88 -54 135 -83 229 -143 522 -318 555 -330 27 -10
83 6 115 34 8 8 25 17 38 21 21 6 173 91 326 182 34 20 88 52 121 71 104 61
440 283 640 423 55 39 111 78 125 87 32 21 425 320 545 413 304 237 745 629
1051 934 397 395 806 849 989 1095 11 14 41 51 66 81 150 177 176 269 86 309
-23 10 -78 43 -121 74 -44 31 -85 56 -92 56 -7 0 -36 19 -65 43 -29 23 -79 60
-110 82 -31 22 -96 68 -144 103 -49 34 -93 62 -98 62 -24 0 -317 265 -317 286
0 47 137 -25 355 -187 50 -37 99 -77 110 -89 11 -12 47 -41 80 -63 33 -22 74
-54 92 -71 30 -29 59 -46 213 -122 97 -49 145 -89 159 -134 6 -22 15 -40 20
-40 7 0 39 34 189 200 80 88 116 156 117 220 0 44 -1 45 -30 42 -32 -4 -18
-16 -282 246 -67 67 -130 133 -139 147 -15 23 -15 25 1 31 10 4 32 -5 58 -24
23 -17 80 -50 127 -73 47 -23 107 -62 135 -88 28 -26 64 -55 81 -65 17 -10 42
-39 55 -65 14 -25 31 -47 39 -49 8 -1 26 16 40 38 14 22 28 40 32 40 4 0 16
17 27 37 10 21 29 47 41 58 44 39 100 135 100 171 0 39 -7 41 -57 14 -21 -11
-45 -20 -55 -20 -26 0 -39 -33 -32 -83 6 -45 6 -45 -34 -66 -23 -12 -54 -21
-70 -21 -27 0 -31 5 -46 50 -19 57 -45 91 -96 126 -19 14 -53 38 -75 54 -22
17 -58 38 -80 49 -22 10 -75 49 -118 87 -43 38 -100 85 -127 104 -26 19 -68
54 -92 78 -23 24 -55 50 -69 57 -30 16 -67 62 -97 120 -11 22 -45 61 -75 87
-58 50 -88 101 -69 120 11 11 112 -32 134 -59 15 -19 173 -123 186 -123 5 0
15 -7 23 -16 7 -8 30 -24 52 -35 39 -20 80 -54 143 -116 18 -18 42 -33 53 -33
12 0 31 -10 42 -21 21 -21 21 -22 3 -33 -10 -6 -20 -17 -22 -23 -3 -18 28 -16
47 1 9 9 48 18 86 21 119 11 128 22 101 122 -13 50 -13 53 8 76 11 13 26 33
32 43 23 39 110 20 117 -26 6 -37 17 -41 88 -34 56 5 69 4 69 -8 0 -8 -5 -19
-11 -25 -7 -7 -9 -19 -6 -27 9 -23 54 -20 67 4 8 14 8 20 0 20 -6 0 -8 5 -5
10 8 13 52 13 60 0 4 -6 10 -8 15 -5 4 2 19 -4 33 -15 14 -11 30 -20 35 -20
13 0 24 -29 16 -42 -3 -5 -8 -24 -11 -41 -3 -18 -6 -36 -6 -42 -1 -5 7 -10 18
-10 14 0 23 10 31 34 8 23 21 38 44 47 41 18 50 30 122 163 58 106 278 547
278 556 0 2 17 42 39 87 21 46 42 94 46 108 4 14 21 52 37 84 17 33 37 83 45
110 8 28 20 60 27 71 7 11 21 45 31 75 11 30 23 60 27 66 5 7 23 56 42 110 18
55 52 151 75 214 23 63 53 151 66 195 13 45 31 98 40 119 9 21 27 80 40 130
12 50 30 111 38 136 9 25 23 74 32 110 9 36 25 93 35 127 11 34 20 71 20 82 0
12 8 47 19 78 10 32 26 94 35 138 10 44 24 103 32 131 8 28 14 65 14 83 0 17
9 49 20 71 11 22 20 59 20 82 0 48 22 161 50 258 11 36 21 97 23 136 3 52 12
90 35 140 22 49 33 92 37 149 6 70 13 109 41 236 7 32 -17 59 -52 59 -14 0
-53 -13 -87 -29 -112 -53 -402 -107 -525 -98 -88 6 -285 33 -346 47 -64 14
-286 89 -311 104 -11 7 -45 21 -75 31 -30 10 -77 26 -105 35 -75 26 -409 106
-495 119 -41 6 -97 15 -125 20 -204 40 -658 55 -808 26 -43 -8 -105 -15 -136
-15 -32 0 -80 -6 -107 -14 -27 -8 -76 -17 -109 -21 -95 -9 -342 -79 -540 -151
-55 -20 -147 -47 -205 -60 -58 -14 -139 -33 -181 -44 -42 -11 -103 -20 -135
-20 -33 0 -93 -5 -135 -11 -42 -7 -87 -9 -101 -6 -30 8 -53 55 -43 89 10 32
54 77 90 92 46 20 133 104 167 160 16 28 42 69 58 91 16 22 39 60 52 83 29 57
92 129 131 148 18 10 77 20 146 25 139 11 164 17 351 79 262 87 502 153 613
166 28 3 87 12 131 20 54 10 156 14 335 14 249 -1 258 -1 326 -26 172 -63 309
-108 425 -140 69 -19 139 -39 155 -44 117 -34 610 -156 695 -173 144 -27 372
-33 515 -13 61 8 142 17 181 20 39 3 84 10 100 15 16 5 58 15 94 22 46 9 73
21 92 39 25 26 26 31 21 101 -3 41 0 116 6 168 9 70 9 97 0 107 -17 20 -77 17
-129 -7 -53 -24 -144 -46 -250 -60 -41 -5 -106 -17 -145 -26 -97 -25 -356 -24
-437 0 -31 9 -78 17 -105 17 -27 0 -72 6 -99 14 -27 8 -67 17 -89 21 -22 4
-58 15 -80 25 -22 10 -51 21 -65 25 -14 4 -40 16 -59 26 -42 25 -172 78 -316
131 -174 64 -425 127 -545 137 -58 5 -146 15 -196 22 -71 10 -116 10 -210 1
-200 -20 -341 -40 -361 -51 -11 -5 -62 -24 -114 -41 -51 -17 -98 -35 -104 -40
-13 -10 -233 -84 -345 -115 -47 -13 -105 -31 -130 -39 -81 -28 -299 -76 -316
-69 -38 14 -44 97 -15 188 20 60 36 134 51 231 8 51 63 202 101 276 26 50 52
66 156 93 99 26 199 62 273 100 27 14 73 32 102 39 29 8 78 22 108 30 146 40
219 46 527 46 226 0 321 -4 380 -15 43 -8 92 -15 108 -15 17 0 68 -9 115 -20
47 -11 132 -31 190 -44 132 -30 279 -71 350 -98 30 -11 82 -28 115 -38 33 -10
110 -37 170 -60 192 -72 190 -72 520 -77 321 -5 457 6 595 47 36 11 91 27 124
37 32 9 72 28 88 41 32 27 32 27 8 142 -7 30 -10 82 -7 114 6 70 -5 106 -32
106 -26 0 -231 -46 -291 -65 -25 -8 -88 -17 -140 -19 -52 -3 -119 -10 -149
-16 -77 -15 -290 -12 -401 5 -52 8 -119 15 -148 15 -29 0 -85 9 -125 20 -39
11 -115 31 -167 44 -94 24 -197 59 -275 96 -22 10 -74 34 -115 53 -146 69
-296 114 -475 142 -117 17 -558 21 -615 5 -19 -6 -73 -15 -120 -20 -47 -5
-119 -21 -160 -35 -41 -13 -81 -25 -88 -25 -20 0 -198 -67 -282 -106 -42 -18
-85 -34 -97 -34 -56 0 -55 67 3 207 43 105 66 144 163 274 87 118 163 196 246
253 59 40 62 41 175 49 197 13 592 22 650 15 30 -4 111 -12 180 -18 69 -6 143
-17 165 -25 22 -8 81 -21 130 -31 115 -21 246 -60 465 -139 180 -64 256 -85
315 -85 19 0 58 -10 87 -21 50 -20 71 -22 358 -22 284 -1 310 0 370 20 36 11
96 29 133 38 117 30 161 91 120 168 -9 18 -16 53 -16 82 1 92 -20 101 -158 66
-140 -35 -294 -46 -474 -33 -89 7 -184 19 -211 27 -27 8 -60 15 -73 15 -45 0
-292 90 -466 169 -22 11 -71 29 -110 41 -38 13 -75 26 -81 31 -6 5 -55 20
-110 33 -54 14 -128 34 -162 46 -35 11 -79 20 -98 20 -19 0 -65 6 -102 14
-124 27 -418 37 -607 22 -134 -11 -310 -41 -371 -64 -27 -11 -96 -38 -154 -60
-94 -36 -155 -55 -300 -91 -25 -6 -76 -16 -115 -21 -38 -6 -99 -16 -135 -24
-166 -38 -309 -53 -339 -37 -30 17 -27 70 8 134 16 28 32 65 35 80 4 16 27 63
52 104 41 66 44 77 31 90 -13 13 -18 13 -48 -2 -19 -10 -43 -25 -54 -35 -11
-9 -58 -38 -105 -64 -47 -26 -96 -54 -110 -62 -14 -9 -45 -24 -70 -35 -143
-64 -261 -129 -307 -171 -42 -38 -61 -48 -88 -48 -57 0 -68 28 -63 162 4 103
7 120 39 193 20 44 48 98 63 120 42 61 138 166 166 180 14 7 77 15 140 19 63
4 142 13 175 21 33 8 107 15 165 15 58 0 132 7 165 15 33 8 89 14 125 15 75 0
255 45 357 88 37 16 86 32 108 36 22 4 72 15 110 26 157 41 229 52 410 62 105
5 255 6 335 3 80 -4 190 -9 245 -11 55 -2 108 -7 118 -10 10 -3 58 -12 105
-19 48 -7 116 -19 152 -28 36 -9 103 -25 150 -36 119 -28 249 -64 360 -99 154
-49 245 -72 322 -82 40 -5 89 -14 108 -20 19 -5 60 -10 90 -10 30 0 85 -9 122
-19 87 -25 418 -28 456 -5 28 18 28 54 2 113 -11 24 -20 51 -20 60 0 29 -49
145 -67 158 -12 9 -47 11 -127 7 -75 -4 -155 -1 -244 10 -74 9 -156 16 -182
16 -27 0 -81 7 -119 15 -70 15 -237 74 -276 99 -29 17 -157 70 -245 101 -41
14 -84 30 -95 35 -11 6 -81 23 -155 39 -74 16 -153 34 -175 39 -113 28 -253
37 -580 37 -340 0 -502 -10 -608 -39 -28 -7 -88 -21 -132 -31 -81 -17 -170
-42 -345 -96 -86 -26 -110 -29 -235 -29 -77 -1 -174 -5 -215 -10 -281 -35
-307 -22 -262 135 29 99 52 241 52 317 0 74 16 98 66 98 16 1 58 7 94 15 36 8
97 15 135 15 39 0 93 7 120 16 28 8 97 26 155 38 58 13 157 43 220 66 170 63
388 120 459 120 17 0 78 9 134 21 93 19 123 21 381 16 200 -4 301 -10 351 -21
39 -8 93 -15 122 -16 28 0 64 -5 78 -10 15 -6 73 -17 129 -25 55 -8 148 -27
206 -44 58 -16 128 -34 155 -39 51 -10 191 -55 300 -97 82 -31 185 -55 235
-55 23 0 65 -7 93 -15 29 -8 103 -16 166 -17 148 -4 150 -1 94 119 -22 48 -48
108 -58 132 -37 98 -63 115 -195 125 -42 3 -98 10 -125 16 -28 5 -84 16 -125
25 -149 30 -232 56 -328 105 -102 51 -277 116 -402 149 -41 11 -91 25 -110 30
-57 18 -210 40 -310 46 -52 2 -131 7 -175 10 -106 8 -387 -9 -500 -30 -78 -15
-213 -55 -365 -110 -25 -9 -83 -33 -130 -54 -130 -59 -220 -90 -306 -107 -44
-8 -101 -21 -129 -29 -27 -8 -75 -17 -105 -20 -30 -4 -91 -13 -134 -22 -63
-12 -88 -13 -118 -4 -43 13 -47 22 -50 121 -3 59 -5 65 -25 68 -17 3 -26 -4
-34 -25 -6 -15 -24 -56 -40 -90 -40 -83 -52 -87 -290 -81 -147 4 -195 9 -239
24 -72 25 -90 54 -72 116 7 24 17 79 22 123 9 83 73 363 92 399 20 39 51 66
77 66 14 0 53 -13 86 -29 192 -93 197 -94 317 -87 60 4 152 14 205 22 53 8
112 14 132 14 57 0 224 32 388 74 142 37 398 141 493 201 58 36 255 93 355
101 204 18 599 6 745 -22 253 -48 390 -77 458 -95 42 -11 100 -25 127 -30 57
-10 180 -48 302 -92 45 -16 89 -27 98 -24 25 10 17 51 -19 104 -19 27 -48 79
-64 115 -17 35 -37 69 -44 75 -18 15 -153 62 -208 73 -25 5 -76 19 -115 30
-38 12 -115 35 -170 51 -55 16 -140 40 -190 55 -49 14 -111 34 -136 44 -25 11
-73 24 -105 31 -86 17 -537 23 -594 8 -25 -6 -74 -15 -110 -19 -36 -4 -128
-24 -205 -44 -134 -34 -221 -63 -475 -156 -63 -23 -164 -52 -225 -65 -60 -13
-123 -28 -138 -34 -16 -6 -47 -11 -69 -11 -23 0 -79 -7 -125 -16 -65 -12 -136
-15 -312 -12 -209 3 -231 5 -250 22 -12 11 -21 25 -21 33 0 8 29 71 64 141 65
130 118 247 131 292 4 14 15 43 25 65 10 22 29 65 42 95 14 30 31 60 39 67 9
7 82 14 199 19 148 5 213 13 325 36 77 17 159 34 183 39 24 5 58 15 75 23 18
8 49 20 70 26 20 6 58 26 85 44 127 87 302 155 477 187 114 20 550 23 661 5
50 -9 122 -16 160 -16 40 0 112 -11 173 -26 110 -27 151 -32 170 -19 17 10 10
25 -67 128 -38 51 -95 130 -127 175 -33 46 -71 92 -85 101 -40 29 -168 41
-310 31 -69 -5 -172 -12 -230 -16 -58 -3 -127 -12 -154 -20 -27 -8 -72 -14
-100 -14 -68 0 -235 -26 -317 -51 -36 -10 -74 -19 -85 -19 -10 0 -46 -14 -79
-31 -33 -17 -103 -46 -155 -64 -86 -29 -147 -47 -320 -91 -58 -15 -192 -32
-323 -41 -66 -5 -81 -3 -97 12 -18 17 -20 27 -14 114 4 56 16 127 29 171 13
41 31 100 39 131 23 82 36 90 163 100 60 4 142 17 183 28 182 47 234 62 251
71 46 25 343 104 624 166 39 8 98 22 132 30 34 8 77 14 96 14 18 0 56 7 83 15
27 8 68 15 92 15 29 0 48 6 63 21 l21 21 -61 62 c-33 33 -70 75 -82 91 -50 67
-83 95 -113 95 -16 0 -93 -20 -170 -44 -78 -25 -161 -50 -186 -56 -25 -6 -66
-20 -92 -30 -26 -11 -59 -20 -73 -20 -15 0 -67 -13 -116 -30 -49 -16 -135 -39
-191 -50 -56 -12 -105 -23 -108 -25 -20 -13 -204 -55 -238 -55 -42 0 -72 20
-72 47 0 9 11 35 24 57 40 69 53 195 30 279 -13 45 -45 -6 -89 -143 -40 -124
-100 -235 -140 -260 -29 -18 -49 -20 -198 -20 -91 0 -178 5 -192 10 -15 6 -73
17 -129 25 -107 15 -167 30 -281 71 -139 51 -231 90 -310 132 -44 24 -101 52
-127 62 -83 34 -332 102 -388 107 -30 2 -84 10 -120 18 -36 8 -92 18 -125 22
-82 11 -88 23 -81 176 7 157 0 173 -48 116z m368 -724 c27 -8 68 -15 92 -15
23 0 70 -8 105 -19 35 -10 102 -29 149 -41 47 -13 114 -36 149 -52 35 -15 68
-28 72 -28 5 0 33 -12 62 -26 28 -14 79 -31 112 -39 33 -7 112 -25 175 -39 63
-15 170 -30 237 -35 139 -10 173 -23 173 -69 0 -15 -10 -43 -21 -62 -43 -69
-86 -156 -99 -195 -18 -57 -60 -138 -79 -152 -32 -24 -71 -14 -201 51 -36 19
-90 41 -120 51 -30 9 -75 26 -100 37 -25 12 -72 27 -105 35 -33 7 -77 20 -97
28 -46 18 -173 45 -213 45 -16 0 -59 9 -93 20 -35 11 -89 20 -120 20 -64 1
-88 11 -125 56 -26 31 -107 193 -107 214 0 7 -13 45 -30 87 -35 88 -36 97 -10
123 25 25 120 27 194 5z m1452 -642 c4 -15 2 -45 -5 -67 -7 -23 -20 -70 -30
-106 -10 -36 -23 -76 -30 -88 -7 -13 -19 -49 -27 -80 -8 -30 -24 -76 -35 -101
-12 -25 -29 -73 -39 -106 -9 -33 -27 -80 -39 -105 -12 -25 -29 -65 -37 -90
-18 -51 -80 -203 -100 -240 -7 -14 -32 -68 -57 -120 -24 -52 -71 -141 -105
-197 -75 -124 -163 -343 -201 -501 -39 -159 -58 -365 -43 -441 7 -32 12 -73
12 -92 0 -20 7 -76 16 -127 12 -72 13 -99 4 -129 -6 -21 -15 -87 -20 -148 -14
-191 -105 -412 -213 -514 -26 -25 -47 -35 -81 -38 -43 -5 -45 -4 -52 22 -9 35
3 294 16 355 5 25 9 236 10 470 0 386 2 433 20 510 11 47 27 119 36 160 22
103 100 346 135 419 16 34 29 66 29 74 0 7 10 28 23 47 13 19 43 70 66 114 47
85 109 178 184 272 28 37 101 167 181 325 148 293 203 396 216 404 4 3 18 25
30 50 17 34 34 52 69 70 58 30 59 30 67 -2z m-991 -382 c27 -16 61 -32 75 -36
93 -25 287 -89 298 -97 31 -26 13 -59 -92 -163 -57 -56 -129 -122 -161 -145
-103 -76 -166 -63 -180 37 -4 26 -25 120 -47 208 -54 214 -52 203 -37 221 18
22 79 11 144 -25z m-2093 -1188 c31 -35 78 -143 93 -215 9 -40 25 -93 35 -118
51 -124 81 -510 45 -581 -16 -31 -45 -44 -75 -34 -20 6 -25 19 -54 140 -8 33
-21 80 -30 104 -9 23 -25 109 -35 190 -11 80 -27 166 -35 190 -20 56 -25 285
-7 319 14 26 42 29 63 5z m596 5 c22 -22 13 -49 -30 -93 -56 -58 -95 -106
-131 -164 -38 -60 -97 -121 -118 -121 -26 0 -38 21 -59 106 -11 43 -27 95 -36
115 -38 87 0 127 135 140 50 5 101 14 113 19 33 13 112 12 126 -2z m160 -190
c15 -15 15 -96 1 -198 -5 -41 -16 -125 -23 -186 -10 -83 -21 -126 -44 -175
-17 -35 -38 -80 -47 -99 -9 -19 -23 -48 -31 -63 -9 -15 -24 -76 -34 -135 -10
-59 -22 -115 -25 -124 -11 -29 -36 -30 -71 -3 -61 47 -68 71 -72 257 l-4 168
38 111 c21 61 48 127 61 146 13 19 33 53 45 76 11 23 31 56 44 72 12 17 26 44
30 60 9 42 50 93 76 98 40 8 44 7 56 -5z m1120 -75 c10 -23 -5 -1374 -17
-1469 -12 -97 -28 -129 -66 -129 -27 0 -31 5 -61 81 -18 44 -44 139 -58 211
-14 72 -31 143 -37 159 -6 16 -15 72 -20 124 -4 52 -13 145 -19 205 -15 161
13 406 65 558 35 105 107 254 129 269 21 15 75 9 84 -9z m747 -783 c118 -17
128 -26 95 -89 -24 -48 -127 -141 -155 -141 -48 0 -135 123 -135 191 0 45 62
58 195 39z m258 -92 c19 -15 47 -153 47 -238 0 -94 -29 -228 -66 -306 -19 -39
-34 -74 -34 -77 0 -19 -116 -174 -173 -232 -67 -67 -95 -104 -181 -239 -46
-72 -112 -225 -121 -281 -3 -22 -13 -75 -22 -117 -14 -70 -14 -84 1 -158 28
-141 22 -219 -36 -465 -37 -158 -135 -298 -228 -326 -78 -23 -75 -33 -71 313
3 288 2 310 -19 393 -19 77 -22 107 -18 239 4 109 10 172 25 226 11 41 26 100
33 130 16 68 81 221 118 275 51 75 123 170 175 229 29 32 56 66 61 75 5 9 34
45 65 81 32 36 70 83 86 105 16 22 41 54 55 71 14 16 36 45 50 64 14 19 39 50
56 70 17 19 45 57 62 84 17 27 48 59 69 72 45 28 44 28 66 12z m-2593 -118
c11 -11 22 -32 25 -47 3 -16 12 -53 20 -83 22 -82 55 -382 55 -490 0 -52 -7
-135 -15 -184 -20 -123 -52 -154 -110 -103 -21 18 -29 40 -45 131 -11 61 -20
130 -20 155 0 25 -7 82 -15 126 -18 103 -19 281 -1 354 8 31 17 73 20 93 11
64 49 85 86 48z m-829 -846 c32 -9 65 -24 73 -33 14 -16 32 -172 39 -345 3
-56 -18 -66 -81 -37 -73 34 -164 149 -225 285 -50 109 -32 146 71 146 36 0 92
-7 123 -16z m1108 -63 c29 -29 40 -294 17 -437 -8 -57 -21 -112 -28 -123 -17
-27 -72 -56 -92 -48 -33 13 -38 56 -34 267 5 203 5 206 35 271 39 86 67 105
102 70z m1024 -483 c9 -7 21 -35 27 -63 7 -27 18 -76 26 -107 8 -32 14 -77 14
-100 0 -23 7 -87 16 -141 16 -91 16 -104 1 -175 -9 -42 -19 -97 -22 -122 -5
-42 -41 -108 -103 -190 -10 -14 -44 -63 -75 -110 -31 -47 -65 -96 -74 -110
-18 -24 -43 -69 -117 -205 -21 -38 -42 -74 -46 -80 -14 -20 -60 -157 -60 -180
0 -44 -77 -50 -109 -9 -12 15 -21 31 -21 37 0 6 -18 49 -39 96 -40 86 -62 194
-63 311 0 79 30 267 50 307 10 21 27 60 38 88 20 54 111 190 248 371 97 128
163 239 190 321 10 29 25 57 34 63 24 13 65 12 85 -2z m1368 -148 c28 -15 24
-70 -10 -143 -15 -34 -32 -73 -36 -87 -4 -14 -19 -42 -32 -63 -13 -20 -34 -61
-48 -90 -47 -101 -89 -167 -162 -259 -18 -22 -41 -53 -50 -68 -32 -55 -116
-67 -141 -20 -17 32 -10 140 13 194 9 21 21 64 26 94 14 91 96 240 172 315
112 110 211 157 268 127z m938 -170 c73 -21 70 -64 -14 -174 -36 -47 -65 -88
-65 -92 0 -4 -15 -32 -32 -63 -38 -65 -81 -169 -109 -261 -14 -46 -18 -81 -14
-120 5 -48 2 -66 -30 -140 -20 -47 -43 -92 -50 -100 -7 -8 -18 -28 -24 -43
-12 -32 -75 -130 -234 -366 -125 -185 -187 -344 -187 -475 0 -56 6 -89 21
-122 26 -58 23 -118 -6 -122 -34 -5 -114 54 -131 96 -8 20 -26 58 -40 83 -22
42 -24 59 -24 168 0 88 4 132 16 159 8 20 24 74 34 118 11 45 30 106 43 135
13 30 32 77 42 104 10 28 23 57 30 65 6 8 21 40 32 70 11 30 41 89 67 130 25
41 56 93 70 115 32 54 41 85 24 85 -8 0 -54 -24 -103 -53 -150 -87 -252 -122
-477 -162 -144 -25 -208 -17 -208 27 0 33 60 91 113 112 25 9 75 36 111 59 36
23 89 57 118 75 113 71 296 224 369 307 173 198 390 348 559 385 50 11 61 11
99 0z m-2211 -893 c2 -16 -4 -49 -12 -74 -9 -26 -16 -60 -16 -76 0 -57 -83
-312 -137 -419 -18 -36 -33 -68 -33 -71 0 -8 -67 -116 -93 -150 -13 -17 -31
-46 -40 -64 -20 -38 -48 -49 -84 -31 -46 22 -64 67 -70 176 -5 102 0 135 51
292 37 117 120 246 211 330 21 19 51 47 66 63 35 35 86 57 124 54 25 -2 31 -7
33 -30z m1087 -311 c40 -40 41 -83 6 -183 -33 -95 -79 -190 -116 -238 -61 -81
-61 -260 1 -326 24 -25 44 -76 44 -111 0 -14 -8 -18 -34 -18 -39 0 -112 54
-159 118 -75 102 -131 283 -131 422 0 68 4 82 41 155 44 86 80 125 157 174 41
25 60 31 108 31 49 0 63 -4 83 -24z m-2917 -298 c6 -7 18 -42 27 -77 22 -87
121 -287 194 -396 105 -154 119 -171 205 -250 118 -106 154 -176 186 -363 13
-71 13 -73 -10 -97 -23 -25 -54 -32 -76 -17 -7 4 -26 36 -43 72 -31 64 -61
113 -138 218 -21 29 -48 68 -61 85 -48 66 -168 184 -251 247 -79 60 -90 72
-129 149 l-43 84 0 114 c1 130 12 185 46 219 26 26 76 32 93 12z m-314 -190
c12 -17 16 -48 16 -120 0 -79 6 -118 31 -204 49 -170 98 -273 210 -440 42 -62
146 -170 238 -248 99 -82 126 -101 239 -157 46 -23 102 -59 124 -80 34 -32 38
-40 29 -58 -7 -12 -26 -23 -47 -27 -58 -11 -186 1 -223 20 -18 10 -62 22 -97
27 -79 11 -247 88 -322 148 -72 57 -152 137 -191 191 -71 99 -120 184 -127
223 -3 23 -14 59 -24 82 -52 122 -69 381 -32 486 27 77 50 119 80 152 32 34
75 36 96 5z m1994 -155 c14 -12 26 -44 36 -95 9 -43 29 -107 46 -142 16 -36
30 -70 30 -75 0 -18 101 -201 111 -201 5 0 18 -18 29 -40 11 -21 29 -44 40
-50 25 -13 36 -55 20 -75 -20 -24 -66 -18 -157 23 -62 27 -104 54 -152 99
-135 124 -155 183 -135 401 10 117 13 127 38 149 32 27 66 29 94 6z m939 -358
c53 -16 138 -78 160 -117 19 -35 16 -85 -7 -108 -30 -30 -153 -28 -251 4 -41
13 -89 27 -107 31 -43 9 -102 65 -102 97 0 36 20 49 119 79 104 32 123 33 188
14z m-1164 -378 c18 -8 55 -39 83 -70 107 -116 104 -165 -11 -211 -76 -30
-137 -33 -182 -8 -18 9 -67 36 -110 60 -43 23 -106 51 -140 63 -34 11 -64 27
-67 35 -17 45 48 107 131 124 32 7 63 14 68 15 31 10 200 3 228 -8z m37 -1287
c18 -18 20 -33 20 -151 0 -138 3 -152 51 -207 39 -44 40 -107 4 -150 -14 -17
-25 -37 -25 -45 0 -22 -21 -67 -32 -67 -10 0 -180 88 -192 100 -5 5 -2 20 8
36 18 26 17 27 -13 68 -17 22 -50 74 -73 114 -22 41 -51 86 -64 101 -50 59
-36 121 28 121 16 0 68 19 116 42 78 37 123 55 145 57 4 1 16 -8 27 -19z
m1061 -618 c66 -43 85 -58 105 -79 16 -16 39 -24 84 -29 35 -4 83 -18 109 -31
25 -14 66 -36 91 -49 25 -13 57 -33 71 -45 16 -13 50 -23 91 -29 71 -8 228
-77 250 -109 7 -10 23 -21 36 -25 12 -4 27 -16 33 -27 6 -12 24 -25 40 -31 18
-6 38 -25 52 -50 73 -130 98 -177 113 -207 20 -44 62 -96 148 -187 101 -106
123 -142 125 -206 1 -46 32 -195 43 -202 57 -35 98 -70 133 -111 54 -63 95
-124 95 -140 0 -22 -63 -1 -151 52 -139 83 -152 81 -175 -38 -7 -39 -23 -87
-34 -106 -11 -19 -20 -44 -20 -57 0 -28 -19 -46 -86 -80 -77 -40 -132 -38
-191 8 -25 20 -54 36 -64 36 -10 0 -26 11 -36 24 -25 33 -57 77 -63 87 -4 5
-32 18 -63 28 -31 11 -74 33 -94 49 -21 16 -54 40 -74 55 -47 33 -81 125 -81
213 0 80 23 116 90 138 73 24 214 56 247 56 34 0 170 54 198 78 17 15 22 47
11 76 -4 10 -18 16 -40 16 -28 0 -38 -6 -58 -38 -31 -49 -94 -73 -223 -86 -29
-3 -65 -12 -82 -20 -38 -20 -72 -20 -118 -1 -43 18 -53 30 -53 67 0 32 45 73
92 83 18 4 51 20 73 35 22 15 63 38 90 52 28 14 67 34 87 44 43 22 47 38 15
59 -21 13 -29 13 -78 0 -30 -9 -90 -20 -134 -25 -44 -5 -95 -12 -114 -14 -33
-5 -33 -5 -26 27 4 18 7 52 8 77 2 43 1 45 -23 42 -14 -2 -41 -4 -60 -5 l-35
-2 0 55 c0 30 3 69 7 87 8 37 -11 64 -39 57 -10 -3 -34 -28 -53 -56 -47 -68
-84 -96 -105 -78 -19 16 -19 53 0 116 31 104 -33 156 -133 105 -40 -20 -161
-63 -229 -80 -33 -9 -51 -8 -88 4 -37 13 -59 14 -110 6 -35 -5 -81 -7 -102 -4
-38 5 -39 4 -57 -38 -37 -91 -39 -94 -79 -97 -33 -3 -43 2 -76 35 -36 36 -71
119 -71 170 0 65 114 140 256 167 44 8 92 19 107 25 32 12 71 6 88 -15 16 -20
43 -17 65 7 11 12 26 18 38 15 10 -3 32 2 48 10 22 12 28 21 28 48 0 27 8 41
40 70 44 40 72 45 111 18z m-1356 -105 c8 -19 17 -58 21 -88 8 -63 27 -115 53
-144 11 -11 26 -42 36 -70 15 -45 15 -52 0 -92 -9 -23 -15 -57 -13 -75 3 -30
7 -34 53 -48 30 -9 65 -30 90 -53 22 -22 65 -59 95 -82 31 -24 62 -50 69 -59
7 -9 21 -16 31 -16 10 0 23 -7 30 -15 6 -8 36 -25 65 -39 58 -26 57 -25 87
-155 7 -30 18 -56 23 -58 6 -2 27 26 48 62 44 77 78 98 157 98 71 0 114 -23
140 -73 24 -46 27 -128 6 -168 -27 -53 -51 -65 -135 -70 -91 -5 -126 10 -171
73 -29 39 -40 43 -64 17 -9 -11 -41 -24 -72 -31 -64 -15 -80 -36 -44 -60 12
-8 56 -42 97 -75 73 -58 75 -60 69 -96 -6 -40 8 -61 52 -75 26 -8 72 -54 72
-72 0 -16 -52 -43 -82 -43 -39 0 -98 -20 -98 -33 0 -7 34 -46 76 -87 70 -69
75 -77 70 -108 -4 -27 0 -39 19 -58 30 -30 52 -22 80 30 23 43 23 43 146 51
118 8 120 6 120 -101 0 -111 5 -108 -209 -112 -97 -2 -191 -1 -207 2 -83 16
-292 192 -313 265 -7 21 -23 55 -37 75 -40 59 -55 104 -55 167 0 50 -3 61 -22
73 -31 21 -54 67 -78 161 -11 44 -27 105 -35 135 -8 30 -15 63 -15 73 0 10
-22 44 -49 75 -58 68 -63 77 -100 184 -57 166 -63 192 -62 265 2 80 -13 191
-36 271 -22 77 -10 154 29 187 39 33 46 32 63 -8z m-2295 -862 c99 -19 125
-27 195 -61 56 -27 68 -29 175 -29 108 1 118 2 175 32 86 44 173 63 310 69
105 5 128 3 179 -15 33 -12 78 -21 101 -21 47 0 79 -9 180 -50 119 -49 263
-80 375 -80 100 0 145 -9 164 -35 128 -165 125 -159 127 -210 3 -90 -12 -1759
-17 -1782 -10 -49 -5 -48 -714 -43 -366 3 -680 1 -698 -3 -35 -9 -37 -11 -47
-70 -11 -68 -30 -77 -153 -77 -118 0 -140 8 -167 60 -33 65 23 60 -750 60
l-704 0 -26 23 -27 22 1 900 2 900 51 90 c67 117 94 154 125 166 34 13 102 19
328 28 183 7 193 9 261 39 85 37 347 100 424 101 30 1 89 -6 130 -14z m3179
-421 c37 -8 39 -25 11 -71 -17 -28 -25 -33 -59 -33 -35 0 -40 3 -46 29 -3 16
-17 37 -31 46 -14 9 -22 20 -19 25 7 11 96 13 144 4z m372 -34 c48 -13 92 -61
92 -100 0 -37 -29 -80 -69 -100 -47 -23 -158 -26 -205 -4 -74 33 -89 102 -36
161 31 33 40 37 103 43 38 4 71 8 74 9 3 0 21 -4 41 -9z m2155 -79 c139 -90
154 -101 160 -125 5 -23 55 -76 72 -76 14 0 80 -39 107 -64 15 -14 36 -28 48
-32 24 -7 136 -86 222 -156 33 -26 65 -48 72 -48 7 0 35 -19 62 -42 89 -78
129 -108 155 -118 40 -15 98 -116 73 -126 -22 -8 -113 43 -147 84 -36 41 -63
62 -195 151 -101 68 -158 109 -184 131 -104 90 -151 129 -176 144 -16 11 -39
29 -51 40 -51 53 -92 73 -174 90 -30 6 -80 52 -100 93 -8 15 -27 42 -43 60
-16 17 -26 36 -23 41 10 16 46 2 122 -47z m-1481 -245 c20 -16 60 -30 116 -40
49 -9 94 -24 109 -36 60 -49 98 -70 145 -80 93 -22 116 -39 134 -100 16 -52
20 -56 73 -82 72 -34 77 -49 68 -208 l-7 -125 -48 -75 c-70 -107 -111 -146
-191 -180 -90 -38 -153 -40 -220 -4 -27 14 -56 32 -65 40 -31 28 -108 200
-140 314 -29 104 -33 134 -40 310 -4 107 -11 210 -15 227 -13 66 23 83 81 39z
m-507 -112 c15 -18 22 -38 22 -68 0 -46 -19 -70 -75 -99 -74 -37 -153 -25
-176 27 -18 39 -4 68 58 115 87 67 127 73 171 25z m1801 -384 c63 -34 244
-172 309 -237 42 -41 48 -73 15 -73 -21 0 -100 47 -153 90 -25 20 -56 43 -70
50 -67 35 -180 146 -180 178 0 29 11 28 79 -8z m-1442 -1741 c14 -12 17 -47 7
-74 -7 -18 -55 -45 -80 -45 -41 0 -71 69 -46 106 22 33 86 40 119 13z"/>
<path d="M14520 10672 c0 -33 32 -67 55 -59 18 8 20 58 3 75 -7 7 -22 12 -35
12 -19 0 -23 -5 -23 -28z"/>
<path d="M9892 10098 c-17 -17 -15 -42 6 -60 9 -9 47 -18 84 -22 61 -6 68 -5
82 16 20 29 20 34 -4 58 -16 16 -33 20 -88 20 -40 0 -73 -5 -80 -12z"/>
<path d="M9630 10079 c-19 -4 -84 -15 -144 -24 -60 -8 -115 -20 -123 -26 -23
-20 -14 -40 25 -56 32 -14 48 -14 127 -3 50 7 117 15 150 19 33 3 66 10 73 14
20 13 14 54 -10 71 -24 17 -43 18 -98 5z"/>
<path d="M9074 10010 c-97 -5 -144 -25 -144 -60 0 -32 31 -40 140 -33 117 7
147 22 137 65 -8 32 -20 34 -133 28z"/>
<path d="M10586 9995 c-74 -19 -97 -61 -52 -91 33 -21 225 -13 261 10 22 14
28 14 67 -4 37 -17 66 -20 199 -20 112 0 170 4 207 15 29 9 58 13 64 9 18 -11
292 -13 306 -2 21 17 14 45 -19 72 -28 24 -38 26 -126 26 -79 0 -104 -4 -140
-22 -43 -22 -44 -22 -76 -3 -29 17 -51 19 -210 18 -162 -2 -181 -4 -212 -23
l-35 -22 -30 22 c-38 27 -134 34 -204 15z"/>
<path d="M9615 9485 c-38 -7 -98 -14 -132 -14 -76 -1 -109 -25 -98 -69 12 -52
56 -65 123 -36 22 10 82 20 145 24 90 6 112 11 129 27 27 27 16 58 -24 72 -38
13 -53 13 -143 -4z"/>
<path d="M9913 9489 c-58 -17 -55 -72 5 -89 62 -17 129 -13 152 10 27 27 25
44 -6 69 -29 23 -93 27 -151 10z"/>
<path d="M11395 9494 c-11 -3 -34 -13 -52 -22 -30 -15 -35 -15 -68 1 -51 24
-385 25 -409 1 -21 -21 -20 -47 2 -67 27 -25 357 -25 409 0 32 15 37 15 61 1
39 -22 270 -22 295 0 23 20 22 34 -6 60 -19 18 -38 22 -117 26 -52 3 -104 3
-115 0z"/>
<path d="M10580 9481 c-72 -10 -100 -26 -100 -55 0 -30 23 -49 58 -48 71 1
193 20 207 32 57 47 -39 88 -165 71z"/>
<path d="M9030 9423 c-67 -8 -92 -58 -45 -89 21 -14 41 -15 127 -9 124 9 171
25 166 57 -2 12 -14 28 -28 35 -24 12 -141 15 -220 6z"/>
<path d="M9886 8834 c-22 -21 -20 -50 4 -74 16 -16 33 -20 89 -20 43 0 72 5
78 13 23 29 23 48 -2 73 -21 20 -34 24 -89 24 -45 0 -69 -5 -80 -16z"/>
<path d="M9570 8820 c-61 -7 -197 -41 -220 -55 -18 -11 -10 -44 15 -61 22 -15
35 -15 98 -6 40 6 106 14 147 18 47 3 82 12 93 21 23 22 22 70 -2 83 -21 11
-33 11 -131 0z"/>
<path d="M8983 8765 c-35 -15 -42 -39 -23 -76 10 -17 19 -18 118 -13 65 4 116
12 130 20 24 16 29 53 10 72 -17 17 -194 15 -235 -3z"/>
<path d="M11390 8757 c-28 -14 -38 -51 -19 -73 9 -11 27 -13 83 -8 52 4 80 2
105 -9 84 -36 131 47 50 88 -35 19 -184 20 -219 2z"/>
<path d="M10566 8750 c-64 -12 -100 -76 -57 -100 26 -13 180 -13 220 1 24 9
31 17 31 37 0 15 -4 32 -8 39 -19 30 -99 40 -186 23z"/>
<path d="M10876 8738 c-20 -29 -20 -52 0 -72 13 -13 45 -16 194 -16 173 0 179
1 194 22 21 30 20 44 -4 68 -18 18 -33 20 -194 20 -169 0 -175 -1 -190 -22z"/>
<path d="M10588 15614 c-7 -7 11 -75 24 -91 17 -21 0 -81 -28 -100 -35 -23
-251 -19 -403 7 -80 14 -160 20 -270 20 -86 0 -185 5 -221 11 -35 5 -141 14
-235 19 -93 5 -188 14 -210 20 -22 5 -157 13 -300 16 -217 5 -277 3 -365 -11
-58 -9 -153 -20 -211 -24 -59 -5 -111 -11 -116 -14 -5 -3 -52 -11 -104 -18
-90 -11 -334 -74 -375 -98 -140 -80 -433 -166 -619 -181 -60 -5 -141 -14 -180
-19 -90 -13 -291 -13 -375 -1 -36 6 -124 14 -196 20 -71 5 -159 15 -195 24
-138 31 -176 38 -195 35 -17 -4 -20 -16 -25 -114 -3 -61 -11 -123 -17 -138
-32 -75 1 -131 84 -142 27 -3 71 -13 98 -21 92 -28 515 -38 686 -16 137 18
314 60 465 112 83 28 193 60 245 70 52 11 133 29 180 39 125 29 285 51 370 51
41 0 102 7 135 16 45 12 127 17 324 21 233 4 278 3 390 -16 175 -28 469 -41
1071 -47 283 -3 529 -7 547 -10 18 -3 47 -17 64 -31 28 -24 33 -25 43 -11 17
23 40 190 33 240 -22 157 -36 218 -55 246 -12 16 -22 41 -22 55 0 30 -19 87
-29 87 -4 0 -10 -3 -13 -6z"/>
<path d="M10530 14779 c0 -5 5 -7 10 -4 6 3 10 8 10 11 0 2 -4 4 -10 4 -5 0
-10 -5 -10 -11z"/>
<path d="M10462 14708 c-15 -20 -24 -58 -13 -58 16 0 41 30 41 51 0 22 -13 25
-28 7z"/>
<path d="M10390 14589 c-12 -22 -8 -35 8 -25 13 8 22 46 11 46 -4 0 -13 -9
-19 -21z"/>
<path d="M10316 14468 c-11 -42 -7 -55 9 -34 16 22 20 56 6 56 -5 0 -11 -10
-15 -22z"/>
<path d="M8490 14410 c-47 -4 -132 -10 -190 -14 -58 -4 -123 -11 -145 -16 -22
-5 -76 -16 -120 -25 -162 -33 -386 -107 -534 -176 -232 -109 -482 -156 -771
-146 -179 7 -374 22 -388 31 -6 3 -72 20 -148 36 -77 17 -160 36 -186 42 -75
18 -76 15 -76 -179 0 -129 3 -171 14 -188 21 -32 90 -55 188 -64 45 -5 89 -12
97 -16 21 -13 463 -32 554 -24 44 4 115 8 157 8 42 1 88 5 102 11 15 5 72 16
129 25 104 15 280 69 351 107 89 47 376 138 561 177 72 16 148 34 170 42 63
22 654 20 755 -3 41 -9 129 -26 195 -38 66 -12 163 -35 215 -52 183 -57 335
-111 382 -134 26 -13 53 -24 60 -24 7 0 66 -29 131 -65 65 -36 122 -63 126
-60 5 2 11 60 14 127 4 68 13 148 22 178 8 30 24 87 34 125 22 78 26 115 11
115 -5 0 -16 -13 -25 -30 -25 -49 -44 -53 -263 -58 l-203 -5 -57 35 c-70 42
-146 78 -232 108 -36 13 -69 27 -75 31 -5 4 -66 21 -135 38 -69 18 -151 39
-183 47 -33 9 -120 20 -195 25 -76 4 -164 10 -197 13 -33 2 -98 1 -145 -4z"/>
<path d="M10251 14356 c-6 -8 -15 -38 -18 -67 -6 -49 -5 -53 10 -40 26 21 49
121 28 121 -5 0 -14 -6 -20 -14z"/>
<path d="M10234 13314 c8 -41 30 -73 43 -61 10 11 -19 90 -36 95 -11 4 -12 -4
-7 -34z"/>
<path d="M4054 4343 c5 -38 2 -54 -13 -78 -47 -72 -171 -249 -222 -317 -31
-40 -62 -85 -69 -98 -7 -14 -34 -52 -60 -85 -25 -33 -71 -96 -101 -140 -128
-187 -133 -192 -212 -211 -58 -13 -45 -37 49 -90 35 -19 98 -62 141 -95 56
-43 85 -59 103 -57 16 2 24 8 22 18 -14 60 1 98 89 220 39 54 118 167 151 217
42 65 60 60 223 -62 33 -25 84 -57 113 -71 39 -19 58 -36 73 -66 l20 -40 -26
-36 c-65 -91 -128 -180 -149 -212 -62 -94 -105 -138 -148 -152 -24 -8 -44 -22
-46 -31 -3 -16 9 -26 133 -107 33 -21 74 -51 90 -65 40 -36 84 -58 101 -51 11
4 13 16 8 45 -9 56 0 81 48 142 24 30 52 68 63 85 11 18 37 56 58 85 20 30 48
70 62 89 34 48 65 93 124 175 28 39 60 84 71 100 161 230 178 248 248 261 17
3 32 12 32 19 0 7 -34 35 -76 61 -42 27 -93 63 -113 80 -45 38 -134 94 -149
94 -7 0 -10 -22 -9 -63 1 -46 -3 -69 -16 -87 -9 -14 -35 -50 -57 -80 -23 -30
-70 -99 -107 -153 -84 -123 -110 -131 -184 -58 -27 27 -65 54 -201 142 -72 46
-78 53 -78 84 0 25 11 48 43 87 24 29 73 96 109 148 83 120 103 138 162 149
26 5 50 12 54 16 8 8 -59 67 -98 87 -14 7 -67 43 -119 80 -56 41 -103 68 -118
68 -25 0 -25 -2 -19 -47z"/>
<path d="M20532 4250 c-29 -12 -113 -82 -110 -92 2 -4 28 -20 58 -35 60 -32
91 -68 196 -225 36 -54 69 -100 75 -103 5 -4 18 -23 28 -43 11 -20 29 -48 41
-62 12 -14 30 -41 40 -61 10 -19 26 -41 35 -49 9 -8 26 -32 37 -54 11 -23 31
-53 44 -68 45 -55 57 -234 20 -305 -8 -16 -44 -57 -80 -90 -91 -86 -178 -116
-276 -97 -37 8 -120 84 -171 158 -19 27 -46 65 -61 85 -15 20 -37 52 -48 71
-11 19 -43 67 -70 105 -87 121 -244 354 -263 388 -16 30 -16 51 -1 91 16 42
-86 -1 -171 -74 -11 -9 -53 -36 -93 -59 -40 -24 -75 -48 -78 -53 -8 -13 15
-38 35 -38 30 0 80 -34 109 -75 15 -22 71 -103 123 -180 288 -424 342 -491
427 -538 77 -42 129 -51 212 -37 175 30 338 130 426 262 41 61 46 76 56 158
12 99 1 183 -32 230 -10 15 -29 49 -44 77 -14 28 -30 54 -36 58 -6 4 -22 27
-36 53 -14 26 -45 74 -69 107 -24 33 -52 74 -61 90 -9 17 -32 48 -50 69 -19
22 -34 44 -34 49 0 5 -12 23 -26 41 -14 17 -42 56 -62 86 -31 47 -37 63 -37
110 0 59 -9 67 -53 50z"/>
<path d="M915 3880 c-33 -16 -65 -30 -72 -30 -6 0 -39 -25 -72 -55 -87 -81
-113 -179 -76 -286 29 -81 150 -184 297 -253 320 -150 721 -191 1408 -146 244
16 291 40 214 108 -35 31 -256 179 -382 256 -26 16 -69 43 -97 61 -46 29 -269
141 -390 195 -206 93 -549 181 -699 179 -57 0 -83 -6 -131 -29z"/>
<path d="M23580 3810 c-297 -35 -691 -187 -1059 -408 -173 -104 -339 -214
-384 -256 -32 -29 -37 -38 -28 -54 16 -30 65 -43 181 -48 58 -3 157 -13 220
-22 144 -21 537 -23 620 -4 30 7 96 16 145 21 267 27 525 124 674 254 87 76
95 88 115 162 27 106 -10 200 -109 275 -106 80 -201 100 -375 80z"/>
<path d="M5290 3513 c0 -45 -6 -66 -29 -102 -15 -25 -61 -104 -101 -176 -40
-71 -88 -153 -107 -180 -18 -28 -33 -54 -33 -58 0 -8 -93 -174 -188 -335 -46
-79 -61 -97 -98 -115 -67 -32 -59 -63 24 -96 54 -22 299 -159 340 -192 13 -10
40 -23 60 -30 20 -6 53 -24 72 -39 19 -15 46 -31 60 -35 14 -4 59 -27 100 -51
101 -59 125 -58 186 6 26 27 55 62 64 77 9 16 27 37 39 47 41 37 17 71 -27 39
-40 -29 -140 -72 -183 -79 -41 -7 -181 25 -229 52 -14 7 -48 25 -76 39 -29 14
-71 46 -94 71 -36 40 -41 49 -34 77 7 36 34 89 99 197 25 41 59 103 75 136 29
62 38 70 98 84 30 7 34 5 49 -23 9 -18 29 -47 44 -65 19 -21 29 -44 30 -65 0
-55 7 -119 13 -124 11 -12 36 20 73 95 22 42 57 104 80 137 22 33 44 71 48 85
4 14 16 35 27 47 11 12 17 27 13 33 -5 8 -15 4 -32 -14 -13 -14 -28 -26 -32
-26 -5 0 -28 -16 -51 -35 -49 -41 -86 -49 -164 -38 l-59 8 -13 45 c-15 51 -11
72 21 115 12 17 35 55 52 85 16 30 41 74 55 96 15 23 33 58 42 77 26 63 122
90 162 46 10 -12 35 -29 54 -38 54 -25 144 -97 184 -148 40 -52 52 -104 42
-194 -6 -48 -4 -59 8 -59 8 0 18 10 22 23 3 12 28 55 55 95 55 82 61 118 27
149 -28 25 -166 109 -203 123 -14 5 -41 21 -58 34 -18 13 -50 29 -72 36 -22 7
-49 20 -60 30 -11 10 -61 38 -112 64 -50 25 -119 64 -154 86 -34 22 -73 40
-86 40 -21 0 -23 -4 -23 -57z"/>
<path d="M19140 3361 c-79 -22 -135 -45 -144 -60 -4 -6 -24 -15 -44 -21 -20
-5 -52 -20 -71 -32 -69 -46 -294 -164 -373 -196 -43 -18 -34 -40 25 -66 54
-23 55 -25 140 -178 48 -85 87 -158 87 -162 0 -4 10 -22 23 -39 12 -16 33 -51
47 -77 47 -88 115 -214 151 -279 20 -36 44 -81 53 -99 8 -18 25 -46 36 -62 16
-22 20 -41 18 -82 -3 -53 -3 -53 26 -51 16 1 47 14 70 29 46 31 151 85 209
108 20 8 37 19 37 25 0 12 -49 51 -64 51 -13 0 -55 44 -72 75 -15 28 -124 218
-151 263 -16 26 -21 46 -17 68 7 41 -6 66 -49 89 -26 14 -43 35 -66 84 -36 76
-147 275 -173 311 -25 34 -22 57 8 102 20 28 38 41 68 49 22 5 62 21 89 35 26
13 53 24 60 24 34 0 119 -33 147 -57 39 -32 104 -120 115 -152 4 -14 18 -45
31 -69 30 -56 30 -68 -2 -128 -33 -62 -66 -98 -131 -140 -59 -38 -66 -59 -25
-75 15 -6 77 -34 137 -64 61 -30 160 -77 220 -105 61 -28 144 -69 187 -91 42
-21 85 -39 96 -39 10 0 53 18 95 39 42 22 92 44 110 50 40 14 72 45 64 64 -3
7 -33 21 -68 31 -55 15 -175 70 -454 209 -113 56 -118 73 -48 166 46 63 47 65
51 151 4 71 1 95 -16 132 -25 57 -83 122 -138 154 -59 34 -198 42 -294 15z"/>
<path d="M6385 2971 c-4 -7 0 -23 9 -36 21 -32 20 -76 -3 -122 -11 -21 -40
-85 -66 -143 -26 -58 -60 -133 -76 -168 -16 -34 -29 -64 -29 -67 0 -10 -92
-214 -179 -397 -42 -88 -59 -113 -90 -134 -67 -44 -62 -61 24 -87 28 -8 93
-36 146 -61 53 -25 110 -49 128 -52 l31 -7 -15 29 c-25 48 -18 92 31 198 42
93 76 171 118 269 20 47 38 54 82 33 40 -18 46 -31 70 -146 9 -47 26 -107 36
-133 26 -68 58 -222 58 -279 0 -41 -4 -50 -30 -70 -40 -29 -39 -54 3 -63 17
-4 64 -22 102 -40 39 -18 80 -36 93 -40 13 -4 55 -23 94 -42 39 -19 87 -37
106 -40 34 -6 35 -6 28 23 -4 16 -19 47 -34 69 -33 47 -52 89 -52 113 0 9 -16
66 -35 125 -19 60 -37 125 -40 145 -6 38 -48 188 -92 328 -24 77 -25 82 -9
112 24 46 52 60 164 82 55 10 113 25 129 33 15 8 98 31 183 52 182 44 212 54
207 69 -7 22 -187 96 -233 96 -25 0 -26 -2 -21 -36 4 -20 2 -45 -4 -55 -17
-33 -147 -89 -242 -105 -55 -9 -101 -23 -125 -38 -21 -14 -60 -26 -90 -29 -29
-4 -94 -20 -143 -37 -69 -23 -94 -28 -109 -20 -29 16 -26 72 9 139 55 104 81
161 102 218 24 64 75 125 119 143 17 7 29 18 27 24 -2 6 -53 31 -113 56 -60
25 -126 56 -147 68 -44 28 -111 40 -122 23z"/>
<path d="M18185 2889 c-79 -32 -135 -60 -135 -68 0 -5 27 -27 59 -50 47 -33
63 -51 77 -89 10 -26 31 -71 46 -101 15 -29 28 -60 28 -69 0 -8 14 -39 30 -69
17 -29 30 -59 30 -67 0 -8 15 -43 33 -79 19 -35 39 -85 46 -111 6 -26 24 -66
39 -88 26 -40 27 -46 27 -179 l0 -137 -50 -53 c-63 -68 -135 -114 -211 -134
-66 -17 -98 -13 -166 21 -48 24 -80 58 -104 109 -7 17 -18 37 -23 45 -19 32
-80 168 -96 214 -9 27 -22 61 -30 75 -8 14 -28 58 -44 96 -49 118 -92 217
-119 275 -25 52 -31 101 -21 170 6 39 -27 36 -129 -9 -49 -23 -92 -41 -96 -41
-21 0 -146 -65 -146 -76 0 -8 21 -24 48 -36 40 -20 51 -32 79 -88 17 -36 44
-96 59 -135 15 -38 32 -79 37 -90 10 -19 28 -60 106 -245 108 -255 167 -337
276 -386 46 -20 72 -24 149 -24 211 0 417 108 513 269 55 93 54 231 -2 360
-13 31 -29 75 -35 97 -5 23 -21 62 -35 87 -14 24 -33 69 -41 98 -9 30 -24 65
-34 79 -9 14 -25 50 -35 80 -10 30 -23 62 -30 70 -17 20 -65 163 -65 193 0 13
9 36 21 51 19 24 20 57 2 55 -4 0 -30 -9 -58 -20z"/>
<path d="M7755 2410 c-3 -5 1 -23 10 -39 20 -40 19 -66 -6 -137 -11 -32 -34
-102 -51 -154 -16 -52 -34 -99 -38 -105 -4 -5 -37 -98 -74 -205 -123 -364
-142 -410 -188 -457 -29 -30 -39 -46 -32 -53 13 -13 322 -119 346 -120 15 0
16 4 8 26 -6 14 -10 49 -10 77 0 51 6 70 101 332 23 61 51 144 64 185 13 41
46 140 75 220 28 80 56 160 61 178 6 18 30 53 55 78 24 25 44 49 44 53 0 18
-40 41 -90 52 -30 6 -92 27 -137 45 -83 34 -127 42 -138 24z"/>
<path d="M16890 2368 c-19 -6 -71 -21 -115 -34 -44 -13 -105 -31 -135 -39 -55
-15 -88 -31 -80 -37 3 -2 24 -16 48 -31 50 -32 71 -73 108 -212 13 -50 33
-108 44 -130 12 -23 20 -59 20 -86 0 -39 -4 -49 -25 -63 -13 -9 -35 -16 -47
-16 -13 0 -45 -11 -73 -23 -27 -13 -79 -29 -115 -36 -36 -7 -77 -19 -92 -27
-15 -8 -40 -14 -56 -14 -48 0 -55 14 -116 215 -8 28 -25 77 -36 110 -18 50
-21 72 -15 132 l7 73 -31 0 c-39 0 -123 -22 -184 -49 -27 -12 -59 -21 -72 -21
-31 0 -75 -20 -75 -35 0 -6 18 -28 40 -50 35 -34 45 -55 85 -184 25 -80 54
-173 66 -206 12 -33 28 -85 36 -115 7 -30 25 -89 38 -130 14 -41 33 -106 44
-145 11 -38 31 -103 46 -143 25 -66 26 -77 15 -111 -28 -87 -9 -91 163 -37 61
19 127 38 145 41 49 10 52 33 9 69 -47 40 -63 80 -137 333 -11 40 -25 75 -30
78 -15 10 -12 53 6 81 21 32 58 51 126 65 29 7 93 27 141 45 151 58 186 45
216 -76 11 -41 28 -102 39 -135 56 -172 64 -205 58 -232 -18 -73 -18 -83 -1
-89 18 -7 84 10 175 45 30 12 79 24 107 28 29 3 61 12 70 19 17 12 15 16 -23
51 -50 46 -77 91 -94 158 -6 28 -27 97 -45 155 -18 58 -48 152 -65 210 -68
225 -112 367 -127 410 -18 49 -20 92 -8 158 8 47 7 48 -55 30z"/>
<path d="M8448 2185 c-3 -3 3 -29 13 -58 10 -28 21 -76 25 -106 l7 -53 39 6
c37 6 39 5 53 -28 8 -20 15 -55 15 -78 0 -60 27 -267 39 -303 6 -16 15 -61 20
-100 18 -136 32 -221 43 -265 6 -25 15 -72 19 -105 30 -221 33 -235 54 -235 7
0 56 60 109 132 152 210 190 261 228 299 20 19 47 53 62 75 14 21 42 59 61 84
20 25 43 58 53 74 9 16 32 46 50 66 17 21 32 43 32 49 0 6 20 33 45 59 25 26
45 50 45 53 0 14 32 19 51 8 17 -9 19 -17 13 -62 -4 -29 -15 -68 -25 -88 -10
-20 -27 -83 -39 -140 -11 -57 -25 -115 -31 -129 -6 -14 -23 -81 -39 -150 -15
-69 -37 -161 -48 -205 -11 -44 -23 -92 -26 -106 -3 -15 -22 -46 -41 -69 -19
-23 -35 -48 -35 -56 0 -22 40 -42 110 -55 36 -6 97 -20 136 -30 38 -11 82 -19
96 -19 25 0 25 0 12 37 -27 77 -18 130 86 528 16 61 35 139 43 175 13 60 53
219 78 314 7 24 28 55 56 83 30 28 43 47 36 54 -5 5 -50 17 -99 26 -49 9 -120
26 -159 39 -83 26 -118 18 -150 -36 -11 -18 -37 -50 -57 -72 -21 -21 -38 -43
-38 -48 0 -5 -19 -32 -42 -60 -70 -82 -94 -114 -108 -140 -7 -14 -27 -42 -44
-62 -64 -77 -84 -104 -101 -137 -16 -31 -57 -74 -91 -94 -41 -24 -74 43 -74
150 0 35 -6 80 -14 100 -7 21 -18 72 -24 113 -24 165 -34 228 -48 287 -8 34
-14 80 -14 101 0 58 -36 105 -85 113 -70 10 -189 38 -234 54 -47 16 -55 18
-63 10z"/>
<path d="M15470 1979 c-86 -23 -98 -46 -55 -103 41 -54 80 -192 105 -375 6
-46 20 -111 31 -145 28 -88 45 -323 30 -399 -11 -50 -21 -67 -74 -123 -33 -36
-72 -71 -86 -78 -40 -20 -175 -39 -218 -32 -110 20 -185 101 -202 218 -5 35
-13 74 -19 88 -5 14 -19 77 -31 140 -41 219 -52 275 -67 340 -8 36 -20 109
-26 163 -11 89 -10 101 6 128 14 23 15 34 7 42 -17 17 -86 12 -160 -12 -35
-12 -75 -21 -88 -21 -42 0 -115 -22 -120 -37 -3 -8 10 -30 31 -52 35 -35 39
-46 62 -167 13 -71 31 -154 39 -184 8 -30 21 -100 30 -155 8 -55 23 -129 31
-165 9 -36 20 -85 25 -110 27 -136 93 -225 208 -278 108 -50 191 -54 348 -17
65 16 132 34 148 42 75 34 179 143 211 219 17 41 17 121 0 289 -8 83 -20 143
-31 165 -10 19 -21 64 -26 100 -21 175 -31 227 -50 264 -28 54 -21 148 15 211
14 23 22 45 19 49 -9 8 -51 6 -93 -5z"/>
<path d="M8414 1855 c-7 -19 -14 -49 -14 -67 0 -48 -25 -156 -48 -209 -11 -26
-25 -85 -31 -132 -6 -49 -19 -104 -32 -128 -12 -24 -24 -73 -28 -115 -6 -66
-10 -76 -48 -117 -86 -93 -79 -116 36 -125 65 -4 71 -3 71 14 0 11 -9 33 -20
49 -22 34 -26 76 -9 107 7 12 16 57 21 101 4 44 15 91 22 106 21 38 43 127 50
195 4 33 15 73 25 90 32 54 57 266 30 266 -5 0 -17 -16 -25 -35z"/>
<path d="M10697 1709 c-9 -5 -27 -29 -38 -52 -30 -59 -90 -158 -110 -182 -9
-11 -29 -42 -43 -70 -27 -50 -53 -90 -101 -155 -34 -46 -105 -166 -105 -179 0
-5 -15 -28 -34 -50 -19 -23 -38 -51 -42 -64 -4 -12 -17 -35 -30 -50 -13 -15
-32 -47 -42 -70 -11 -23 -29 -51 -41 -61 -11 -11 -21 -24 -21 -30 0 -7 -25
-36 -55 -66 -59 -58 -65 -74 -37 -88 29 -16 160 -42 176 -36 20 8 21 33 2 40
-42 16 -43 120 -3 171 12 14 33 47 47 72 32 57 90 81 150 61 38 -12 143 -10
157 3 17 18 -24 32 -100 35 -45 2 -88 9 -94 14 -28 23 -3 96 53 158 22 25 63
94 104 178 25 50 36 57 72 43 22 -8 31 -25 58 -113 17 -57 40 -132 52 -166 24
-76 18 -122 -19 -156 l-25 -24 38 -12 c53 -17 69 -33 83 -83 7 -23 20 -58 28
-77 21 -45 20 -133 -2 -167 -10 -15 -13 -29 -8 -34 12 -12 271 -48 351 -49 40
0 43 2 37 23 -4 12 -22 47 -40 77 -33 55 -46 90 -104 290 -17 58 -41 132 -52
165 -11 33 -33 105 -48 160 -16 55 -34 114 -41 130 -6 17 -22 68 -35 115 -13
47 -33 111 -44 142 -12 32 -21 72 -21 91 0 35 -24 77 -43 77 -7 0 -20 -5 -30
-11z"/>
<path d="M13550 1684 c-58 -8 -125 -11 -150 -8 -50 6 -100 -8 -100 -29 0 -7
18 -31 40 -52 l40 -39 0 -81 c0 -44 7 -129 15 -190 8 -60 15 -160 15 -221 0
-67 8 -154 20 -220 27 -148 26 -252 -2 -331 -12 -34 -19 -65 -15 -69 3 -4 39
-2 79 5 40 6 117 10 170 9 67 -1 101 2 112 11 22 18 20 25 -16 66 -30 35 -31
40 -39 158 -4 67 -14 165 -23 218 -8 53 -12 114 -9 135 3 22 -3 94 -13 159
-12 75 -19 172 -19 260 1 139 3 149 43 228 5 9 -16 8 -148 -9z"/>
<path d="M11883 1633 c-3 -8 17 -37 50 -72 55 -58 61 -69 71 -145 7 -48 20
-64 40 -47 29 24 59 8 113 -64 29 -38 68 -88 87 -110 19 -22 49 -58 68 -81 47
-58 172 -207 243 -289 34 -38 69 -82 78 -97 9 -15 43 -56 75 -90 32 -35 78
-91 101 -126 42 -62 93 -105 115 -96 8 3 12 158 13 549 3 576 2 563 50 637 9
15 14 31 9 35 -11 12 -163 10 -175 -2 -7 -7 6 -34 41 -84 48 -69 50 -75 40
-109 -6 -24 -7 -116 -2 -262 4 -129 3 -232 -2 -242 -22 -44 -104 -10 -154 65
-54 81 -97 136 -235 302 -35 42 -89 107 -119 143 -31 37 -77 95 -103 130 -27
34 -51 62 -55 63 -4 1 -83 2 -175 4 -138 2 -170 0 -174 -12z"/>
<path d="M12007 1282 c-5 -7 -8 -164 -8 -350 l0 -337 -25 -55 c-14 -30 -37
-68 -52 -83 -36 -37 -20 -47 80 -47 109 0 114 3 78 54 -16 22 -34 61 -39 86
-6 25 -11 173 -12 330 -1 300 -8 424 -22 402z"/>
</g>
</svg>
